<?xml version="1.0" encoding="utf-8" standalone="no"?>
<!DOCTYPE svg PUBLIC "-//W3C//DTD SVG 1.1//EN"
  "http://www.w3.org/Graphics/SVG/1.1/DTD/svg11.dtd">
<svg xmlns:xlink="http://www.w3.org/1999/xlink" width="996.48pt" height="708.48pt" viewBox="0 0 996.48 708.48" xmlns="http://www.w3.org/2000/svg" version="1.1">
 <metadata>
  <rdf:RDF xmlns:dc="http://purl.org/dc/elements/1.1/" xmlns:cc="http://creativecommons.org/ns#" xmlns:rdf="http://www.w3.org/1999/02/22-rdf-syntax-ns#">
   <cc:Work>
    <dc:type rdf:resource="http://purl.org/dc/dcmitype/StillImage"/>
    <dc:date>2026-01-20T21:47:02.005104</dc:date>
    <dc:format>image/svg+xml</dc:format>
    <dc:creator>
     <cc:Agent>
      <dc:title>Matplotlib v3.10.8, https://matplotlib.org/</dc:title>
     </cc:Agent>
    </dc:creator>
   </cc:Work>
  </rdf:RDF>
 </metadata>
 <defs>
  <style type="text/css">*{stroke-linejoin: round; stroke-linecap: butt}</style>
 </defs>
 <g id="figure_1">
  <g id="patch_1">
   <path d="M 0 708.48 
L 996.48 708.48 
L 996.48 0 
L 0 0 
z
" style="fill: #ffffff"/>
  </g>
  <g id="axes_1">
   <g id="patch_2">
    <path d="M 52.211562 313.359062 
L 989.28 313.359062 
L 989.28 33.045 
L 52.211562 33.045 
z
" style="fill: #ffffff"/>
   </g>
   <g id="matplotlib.axis_1">
    <g id="xtick_1">
     <g id="line2d_1">
      <path d="M 210.971091 313.359062 
L 210.971091 33.045 
" clip-path="url(#p7b5ebfa59e)" style="fill: none; stroke: #cccccc; stroke-width: 0.8; stroke-linecap: round"/>
     </g>
     <g id="text_1">
      <text style="font-size: 12px; font-family: 'Times New Roman', 'DejaVu Serif', serif; text-anchor: middle; fill: #262626" x="210.971091" y="328.691562" transform="rotate(-0 210.971091 328.691562)">Small</text>
     </g>
    </g>
    <g id="xtick_2">
     <g id="line2d_2">
      <path d="M 520.745781 313.359062 
L 520.745781 33.045 
" clip-path="url(#p7b5ebfa59e)" style="fill: none; stroke: #cccccc; stroke-width: 0.8; stroke-linecap: round"/>
     </g>
     <g id="text_2">
      <text style="font-size: 12px; font-family: 'Times New Roman', 'DejaVu Serif', serif; text-anchor: middle; fill: #262626" x="520.745781" y="328.691562" transform="rotate(-0 520.745781 328.691562)">Medium</text>
     </g>
    </g>
    <g id="xtick_3">
     <g id="line2d_3">
      <path d="M 830.520471 313.359062 
L 830.520471 33.045 
" clip-path="url(#p7b5ebfa59e)" style="fill: none; stroke: #cccccc; stroke-width: 0.8; stroke-linecap: round"/>
     </g>
     <g id="text_3">
      <text style="font-size: 12px; font-family: 'Times New Roman', 'DejaVu Serif', serif; text-anchor: middle; fill: #262626" x="830.520471" y="328.669062" transform="rotate(-0 830.520471 328.669062)">Large</text>
     </g>
    </g>
    <g id="text_4">
     <text style="font-weight: 700; font-size: 14px; font-family: 'Times New Roman', 'DejaVu Serif', serif; text-anchor: middle; fill: #262626" x="520.745781" y="344.739062" transform="rotate(-0 520.745781 344.739062)">Prompt Category</text>
    </g>
   </g>
   <g id="matplotlib.axis_2">
    <g id="ytick_1">
     <g id="line2d_4">
      <path d="M 52.211562 202.026702 
L 989.28 202.026702 
" clip-path="url(#p7b5ebfa59e)" style="fill: none; stroke-dasharray: 2.96,1.28; stroke-dashoffset: 0; stroke: #cccccc; stroke-opacity: 0.3; stroke-width: 0.8"/>
     </g>
     <g id="text_5">
      <!-- $\mathdefault{10^{-1}}$ -->
      <g style="fill: #262626" transform="translate(23.491563 207.343264)">
       <text>
        <tspan x="0" y="-0.109938" style="font-size: 12px; font-family: 'Times New Roman'; fill: #262626">1</tspan>
        <tspan x="6" y="-0.109938" style="font-size: 12px; font-family: 'Times New Roman'; fill: #262626">0</tspan>
        <tspan x="12.180338" y="-7.323437" style="font-size: 8.4px; font-family: 'Times New Roman'; fill: #262626">−</tspan>
        <tspan x="16.917642" y="-7.323437" style="font-size: 8.4px; font-family: 'Times New Roman'; fill: #262626">1</tspan>
       </text>
      </g>
     </g>
    </g>
    <g id="ytick_2">
     <g id="line2d_5">
      <path d="M 52.211562 77.671478 
L 989.28 77.671478 
" clip-path="url(#p7b5ebfa59e)" style="fill: none; stroke-dasharray: 2.96,1.28; stroke-dashoffset: 0; stroke: #cccccc; stroke-opacity: 0.3; stroke-width: 0.8"/>
     </g>
     <g id="text_6">
      <!-- $\mathdefault{10^{0}}$ -->
      <g style="fill: #262626" transform="translate(28.291563 82.98804)">
       <text>
        <tspan x="0" y="-0.109938" style="font-size: 12px; font-family: 'Times New Roman'; fill: #262626">1</tspan>
        <tspan x="6" y="-0.109938" style="font-size: 12px; font-family: 'Times New Roman'; fill: #262626">0</tspan>
        <tspan x="12.180338" y="-7.323437" style="font-size: 8.4px; font-family: 'Times New Roman'; fill: #262626">0</tspan>
       </text>
      </g>
     </g>
    </g>
    <g id="ytick_3"/>
    <g id="ytick_4"/>
    <g id="ytick_5"/>
    <g id="ytick_6"/>
    <g id="ytick_7"/>
    <g id="ytick_8"/>
    <g id="ytick_9"/>
    <g id="ytick_10"/>
    <g id="ytick_11"/>
    <g id="ytick_12"/>
    <g id="ytick_13"/>
    <g id="ytick_14"/>
    <g id="ytick_15"/>
    <g id="ytick_16"/>
    <g id="ytick_17"/>
    <g id="ytick_18"/>
    <g id="ytick_19"/>
    <g id="text_7">
     <text style="font-weight: 700; font-size: 14px; font-family: 'Times New Roman', 'DejaVu Serif', serif; text-anchor: middle; fill: #262626" x="16.496875" y="173.202031" transform="rotate(-90 16.496875 173.202031)">Size (KB)</text>
    </g>
   </g>
   <g id="patch_3">
    <path d="M 94.805582 124432.895319 
L 172.249255 124432.895319 
L 172.249255 258.483657 
L 94.805582 258.483657 
z
" clip-path="url(#p7b5ebfa59e)" style="fill: #e74c3c; opacity: 0.7; stroke: #ffffff; stroke-width: 1.5; stroke-linejoin: miter"/>
   </g>
   <g id="patch_4">
    <path d="M 94.805582 124432.895319 
L 172.249255 124432.895319 
L 172.249255 246.43239 
L 94.805582 246.43239 
z
" clip-path="url(#p7b5ebfa59e)" style="fill: #3498db; opacity: 0.8; stroke: #ffffff; stroke-width: 1.5; stroke-linejoin: miter"/>
   </g>
   <g id="patch_5">
    <path d="M 172.249255 124432.895319 
L 249.692927 124432.895319 
L 249.692927 300.617514 
L 172.249255 300.617514 
z
" clip-path="url(#p7b5ebfa59e)" style="fill: #2ecc71; opacity: 0.8; stroke: #ffffff; stroke-width: 1.5; stroke-linejoin: miter"/>
   </g>
   <g id="patch_6">
    <path d="M 249.692927 124432.895319 
L 327.1366 124432.895319 
L 327.1366 277.107384 
L 249.692927 277.107384 
z
" clip-path="url(#p7b5ebfa59e)" style="fill: #9b59b6; opacity: 0.8; stroke: #ffffff; stroke-width: 1.5; stroke-linejoin: miter"/>
   </g>
   <g id="patch_7">
    <path d="M 404.580272 124432.895319 
L 482.023945 124432.895319 
L 482.023945 126.710948 
L 404.580272 126.710948 
z
" clip-path="url(#p7b5ebfa59e)" style="fill: #e74c3c; opacity: 0.7; stroke: #ffffff; stroke-width: 1.5; stroke-linejoin: miter"/>
   </g>
   <g id="patch_8">
    <path d="M 404.580272 124432.895319 
L 482.023945 124432.895319 
L 482.023945 149.399174 
L 404.580272 149.399174 
z
" clip-path="url(#p7b5ebfa59e)" style="fill: #3498db; opacity: 0.8; stroke: #ffffff; stroke-width: 1.5; stroke-linejoin: miter"/>
   </g>
   <g id="patch_9">
    <path d="M 482.023945 124432.895319 
L 559.467618 124432.895319 
L 559.467618 143.795311 
L 482.023945 143.795311 
z
" clip-path="url(#p7b5ebfa59e)" style="fill: #2ecc71; opacity: 0.8; stroke: #ffffff; stroke-width: 1.5; stroke-linejoin: miter"/>
   </g>
   <g id="patch_10">
    <path d="M 559.467618 124432.895319 
L 636.91129 124432.895319 
L 636.91129 163.841336 
L 559.467618 163.841336 
z
" clip-path="url(#p7b5ebfa59e)" style="fill: #9b59b6; opacity: 0.8; stroke: #ffffff; stroke-width: 1.5; stroke-linejoin: miter"/>
   </g>
   <g id="patch_11">
    <path d="M 714.354963 124432.895319 
L 791.798635 124432.895319 
L 791.798635 45.786548 
L 714.354963 45.786548 
z
" clip-path="url(#p7b5ebfa59e)" style="fill: #e74c3c; opacity: 0.7; stroke: #ffffff; stroke-width: 1.5; stroke-linejoin: miter"/>
   </g>
   <g id="patch_12">
    <path d="M 714.354963 124432.895319 
L 791.798635 124432.895319 
L 791.798635 82.910369 
L 714.354963 82.910369 
z
" clip-path="url(#p7b5ebfa59e)" style="fill: #3498db; opacity: 0.8; stroke: #ffffff; stroke-width: 1.5; stroke-linejoin: miter"/>
   </g>
   <g id="patch_13">
    <path d="M 791.798635 124432.895319 
L 869.242308 124432.895319 
L 869.242308 66.143112 
L 791.798635 66.143112 
z
" clip-path="url(#p7b5ebfa59e)" style="fill: #2ecc71; opacity: 0.8; stroke: #ffffff; stroke-width: 1.5; stroke-linejoin: miter"/>
   </g>
   <g id="patch_14">
    <path d="M 869.242308 124432.895319 
L 946.68598 124432.895319 
L 946.68598 98.68011 
L 869.242308 98.68011 
z
" clip-path="url(#p7b5ebfa59e)" style="fill: #9b59b6; opacity: 0.8; stroke: #ffffff; stroke-width: 1.5; stroke-linejoin: miter"/>
   </g>
   <g id="patch_15">
    <path d="M 52.211562 313.359062 
L 52.211562 33.045 
" style="fill: none; stroke: #cccccc; stroke-width: 1.2; stroke-linejoin: miter; stroke-linecap: square"/>
   </g>
   <g id="patch_16">
    <path d="M 989.28 313.359062 
L 989.28 33.045 
" style="fill: none; stroke: #cccccc; stroke-width: 1.2; stroke-linejoin: miter; stroke-linecap: square"/>
   </g>
   <g id="patch_17">
    <path d="M 52.211562 313.359062 
L 989.28 313.359062 
" style="fill: none; stroke: #cccccc; stroke-width: 1.2; stroke-linejoin: miter; stroke-linecap: square"/>
   </g>
   <g id="patch_18">
    <path d="M 52.211562 33.045 
L 989.28 33.045 
" style="fill: none; stroke: #cccccc; stroke-width: 1.2; stroke-linejoin: miter; stroke-linecap: square"/>
   </g>
   <g id="text_8">
    <text style="font-weight: 700; font-size: 16px; font-family: 'Times New Roman', 'DejaVu Serif', serif; text-anchor: middle; fill: #262626" x="520.745781" y="18.045" transform="rotate(-0 520.745781 18.045)">Disk Size: Original vs Compressed</text>
   </g>
   <g id="legend_1">
    <g id="patch_19">
     <path d="M 59.911563 57.418594 
L 420.156406 57.418594 
Q 422.356406 57.418594 422.356406 55.218594 
L 422.356406 40.745 
Q 422.356406 38.545 420.156406 38.545 
L 59.911563 38.545 
Q 57.711562 38.545 57.711562 40.745 
L 57.711562 55.218594 
Q 57.711562 57.418594 59.911563 57.418594 
z
" style="fill: #ffffff; opacity: 0.9; stroke: #cccccc; stroke-width: 1.5; stroke-linejoin: miter"/>
    </g>
    <g id="patch_20">
     <path d="M 62.111562 50.645 
L 84.111562 50.645 
L 84.111562 42.945 
L 62.111562 42.945 
z
" style="fill: #e74c3c; opacity: 0.7; stroke: #ffffff; stroke-width: 1.5; stroke-linejoin: miter"/>
    </g>
    <g id="text_9">
     <text style="font-size: 11px; font-family: 'Times New Roman', 'DejaVu Serif', serif; text-anchor: start; fill: #262626" x="92.911563" y="50.645" transform="rotate(-0 92.911563 50.645)">Original Size</text>
    </g>
    <g id="patch_21">
     <path d="M 173.257969 50.645 
L 195.257969 50.645 
L 195.257969 42.945 
L 173.257969 42.945 
z
" style="fill: #3498db; opacity: 0.8; stroke: #ffffff; stroke-width: 1.5; stroke-linejoin: miter"/>
    </g>
    <g id="text_10">
     <text style="font-size: 11px; font-family: 'Times New Roman', 'DejaVu Serif', serif; text-anchor: start; fill: #262626" x="204.057969" y="50.645" transform="rotate(-0 204.057969 50.645)">Zstd</text>
    </g>
    <g id="patch_22">
     <path d="M 245.613906 50.645 
L 267.613906 50.645 
L 267.613906 42.945 
L 245.613906 42.945 
z
" style="fill: #2ecc71; opacity: 0.8; stroke: #ffffff; stroke-width: 1.5; stroke-linejoin: miter"/>
    </g>
    <g id="text_11">
     <text style="font-size: 11px; font-family: 'Times New Roman', 'DejaVu Serif', serif; text-anchor: start; fill: #262626" x="276.413906" y="50.645" transform="rotate(-0 276.413906 50.645)">Token (BPE)</text>
    </g>
    <g id="patch_23">
     <path d="M 355.99375 50.645 
L 377.99375 50.645 
L 377.99375 42.945 
L 355.99375 42.945 
z
" style="fill: #9b59b6; opacity: 0.8; stroke: #ffffff; stroke-width: 1.5; stroke-linejoin: miter"/>
    </g>
    <g id="text_12">
     <text style="font-size: 11px; font-family: 'Times New Roman', 'DejaVu Serif', serif; text-anchor: start; fill: #262626" x="386.79375" y="50.645" transform="rotate(-0 386.79375 50.645)">Hybrid</text>
    </g>
   </g>
  </g>
  <g id="axes_2">
   <g id="patch_24">
    <path d="M 52.211562 666.879062 
L 989.28 666.879062 
L 989.28 386.565 
L 52.211562 386.565 
z
" style="fill: #ffffff"/>
   </g>
   <g id="matplotlib.axis_3">
    <g id="xtick_4">
     <g id="line2d_6">
      <path d="M 94.805582 666.879062 
L 94.805582 386.565 
" clip-path="url(#pd5383d652d)" style="fill: none; stroke-dasharray: 2.96,1.28; stroke-dashoffset: 0; stroke: #cccccc; stroke-opacity: 0.3; stroke-width: 0.8"/>
     </g>
     <g id="text_13">
      <text style="font-size: 12px; font-family: 'Times New Roman', 'DejaVu Serif', serif; text-anchor: middle; fill: #262626" x="94.805582" y="682.211562" transform="rotate(-0 94.805582 682.211562)">Small</text>
     </g>
    </g>
    <g id="xtick_5">
     <g id="line2d_7">
      <path d="M 520.745781 666.879062 
L 520.745781 386.565 
" clip-path="url(#pd5383d652d)" style="fill: none; stroke-dasharray: 2.96,1.28; stroke-dashoffset: 0; stroke: #cccccc; stroke-opacity: 0.3; stroke-width: 0.8"/>
     </g>
     <g id="text_14">
      <text style="font-size: 12px; font-family: 'Times New Roman', 'DejaVu Serif', serif; text-anchor: middle; fill: #262626" x="520.745781" y="682.211562" transform="rotate(-0 520.745781 682.211562)">Medium</text>
     </g>
    </g>
    <g id="xtick_6">
     <g id="line2d_8">
      <path d="M 946.68598 666.879062 
L 946.68598 386.565 
" clip-path="url(#pd5383d652d)" style="fill: none; stroke-dasharray: 2.96,1.28; stroke-dashoffset: 0; stroke: #cccccc; stroke-opacity: 0.3; stroke-width: 0.8"/>
     </g>
     <g id="text_15">
      <text style="font-size: 12px; font-family: 'Times New Roman', 'DejaVu Serif', serif; text-anchor: middle; fill: #262626" x="946.68598" y="682.189062" transform="rotate(-0 946.68598 682.189062)">Large</text>
     </g>
    </g>
    <g id="text_16">
     <text style="font-weight: 700; font-size: 14px; font-family: 'Times New Roman', 'DejaVu Serif', serif; text-anchor: middle; fill: #262626" x="520.745781" y="698.259062" transform="rotate(-0 520.745781 698.259062)">Prompt Category</text>
    </g>
   </g>
   <g id="matplotlib.axis_4">
    <g id="ytick_20">
     <g id="line2d_9">
      <path d="M 52.211562 666.879062 
L 989.28 666.879062 
" clip-path="url(#pd5383d652d)" style="fill: none; stroke-dasharray: 2.96,1.28; stroke-dashoffset: 0; stroke: #cccccc; stroke-opacity: 0.3; stroke-width: 0.8"/>
     </g>
     <g id="text_17">
      <text style="font-size: 12px; font-family: 'Times New Roman', 'DejaVu Serif', serif; text-anchor: end; fill: #262626" x="45.211562" y="671.045312" transform="rotate(-0 45.211562 671.045312)">0</text>
     </g>
    </g>
    <g id="ytick_21">
     <g id="line2d_10">
      <path d="M 52.211562 610.81625 
L 989.28 610.81625 
" clip-path="url(#pd5383d652d)" style="fill: none; stroke-dasharray: 2.96,1.28; stroke-dashoffset: 0; stroke: #cccccc; stroke-opacity: 0.3; stroke-width: 0.8"/>
     </g>
     <g id="text_18">
      <text style="font-size: 12px; font-family: 'Times New Roman', 'DejaVu Serif', serif; text-anchor: end; fill: #262626" x="45.211562" y="614.9825" transform="rotate(-0 45.211562 614.9825)">20</text>
     </g>
    </g>
    <g id="ytick_22">
     <g id="line2d_11">
      <path d="M 52.211562 554.753437 
L 989.28 554.753437 
" clip-path="url(#pd5383d652d)" style="fill: none; stroke-dasharray: 2.96,1.28; stroke-dashoffset: 0; stroke: #cccccc; stroke-opacity: 0.3; stroke-width: 0.8"/>
     </g>
     <g id="text_19">
      <text style="font-size: 12px; font-family: 'Times New Roman', 'DejaVu Serif', serif; text-anchor: end; fill: #262626" x="45.211562" y="558.919687" transform="rotate(-0 45.211562 558.919687)">40</text>
     </g>
    </g>
    <g id="ytick_23">
     <g id="line2d_12">
      <path d="M 52.211562 498.690625 
L 989.28 498.690625 
" clip-path="url(#pd5383d652d)" style="fill: none; stroke-dasharray: 2.96,1.28; stroke-dashoffset: 0; stroke: #cccccc; stroke-opacity: 0.3; stroke-width: 0.8"/>
     </g>
     <g id="text_20">
      <text style="font-size: 12px; font-family: 'Times New Roman', 'DejaVu Serif', serif; text-anchor: end; fill: #262626" x="45.211562" y="502.856875" transform="rotate(-0 45.211562 502.856875)">60</text>
     </g>
    </g>
    <g id="ytick_24">
     <g id="line2d_13">
      <path d="M 52.211562 442.627812 
L 989.28 442.627812 
" clip-path="url(#pd5383d652d)" style="fill: none; stroke-dasharray: 2.96,1.28; stroke-dashoffset: 0; stroke: #cccccc; stroke-opacity: 0.3; stroke-width: 0.8"/>
     </g>
     <g id="text_21">
      <text style="font-size: 12px; font-family: 'Times New Roman', 'DejaVu Serif', serif; text-anchor: end; fill: #262626" x="45.211562" y="446.794062" transform="rotate(-0 45.211562 446.794062)">80</text>
     </g>
    </g>
    <g id="ytick_25">
     <g id="line2d_14">
      <path d="M 52.211562 386.565 
L 989.28 386.565 
" clip-path="url(#pd5383d652d)" style="fill: none; stroke-dasharray: 2.96,1.28; stroke-dashoffset: 0; stroke: #cccccc; stroke-opacity: 0.3; stroke-width: 0.8"/>
     </g>
     <g id="text_22">
      <text style="font-size: 12px; font-family: 'Times New Roman', 'DejaVu Serif', serif; text-anchor: end; fill: #262626" x="45.211562" y="390.73125" transform="rotate(-0 45.211562 390.73125)">100</text>
     </g>
    </g>
    <g id="text_23">
     <text style="font-weight: 700; font-size: 14px; font-family: 'Times New Roman', 'DejaVu Serif', serif; text-anchor: middle; fill: #262626" x="20.216875" y="526.722031" transform="rotate(-90 20.216875 526.722031)">Size Reduction (%)</text>
    </g>
   </g>
   <g id="line2d_15">
    <path d="M 166.739539 709.48 
L 520.745781 571.150267 
L 946.68598 527.685043 
" clip-path="url(#pd5383d652d)" style="fill: none; stroke: #3498db; stroke-width: 2.5; stroke-linecap: round"/>
    <defs>
     <path id="m868c139414" d="M 0 5 
C 1.326016 5 2.597899 4.473168 3.535534 3.535534 
C 4.473168 2.597899 5 1.326016 5 0 
C 5 -1.326016 4.473168 -2.597899 3.535534 -3.535534 
C 2.597899 -4.473168 1.326016 -5 0 -5 
C -1.326016 -5 -2.597899 -4.473168 -3.535534 -3.535534 
C -4.473168 -2.597899 -5 -1.326016 -5 0 
C -5 1.326016 -4.473168 2.597899 -3.535534 3.535534 
C -2.597899 4.473168 -1.326016 5 0 5 
z
" style="stroke: #3498db; stroke-width: 2"/>
    </defs>
    <g clip-path="url(#pd5383d652d)">
     <use xlink:href="#m868c139414" x="94.805582" y="737.588558" style="fill: #3498db; stroke: #3498db; stroke-width: 2"/>
     <use xlink:href="#m868c139414" x="520.745781" y="571.150267" style="fill: #3498db; stroke: #3498db; stroke-width: 2"/>
     <use xlink:href="#m868c139414" x="946.68598" y="527.685043" style="fill: #3498db; stroke: #3498db; stroke-width: 2"/>
    </g>
   </g>
   <g id="line2d_16">
    <path d="M 94.805582 515.195469 
L 520.745781 590.929064 
L 946.68598 578.113009 
" clip-path="url(#pd5383d652d)" style="fill: none; stroke: #2ecc71; stroke-width: 2.5; stroke-linecap: round"/>
    <defs>
     <path id="m24bae43640" d="M 0 5 
C 1.326016 5 2.597899 4.473168 3.535534 3.535534 
C 4.473168 2.597899 5 1.326016 5 0 
C 5 -1.326016 4.473168 -2.597899 3.535534 -3.535534 
C 2.597899 -4.473168 1.326016 -5 0 -5 
C -1.326016 -5 -2.597899 -4.473168 -3.535534 -3.535534 
C -4.473168 -2.597899 -5 -1.326016 -5 0 
C -5 1.326016 -4.473168 2.597899 -3.535534 3.535534 
C -2.597899 4.473168 -1.326016 5 0 5 
z
" style="stroke: #2ecc71; stroke-width: 2"/>
    </defs>
    <g clip-path="url(#pd5383d652d)">
     <use xlink:href="#m24bae43640" x="94.805582" y="515.195469" style="fill: #2ecc71; stroke: #2ecc71; stroke-width: 2"/>
     <use xlink:href="#m24bae43640" x="520.745781" y="590.929064" style="fill: #2ecc71; stroke: #2ecc71; stroke-width: 2"/>
     <use xlink:href="#m24bae43640" x="946.68598" y="578.113009" style="fill: #2ecc71; stroke: #2ecc71; stroke-width: 2"/>
    </g>
   </g>
   <g id="line2d_17">
    <path d="M 94.805582 585.904965 
L 520.745781 527.576781 
L 946.68598 491.980475 
" clip-path="url(#pd5383d652d)" style="fill: none; stroke: #9b59b6; stroke-width: 2.5; stroke-linecap: round"/>
    <defs>
     <path id="m5e52fccbf7" d="M 0 5 
C 1.326016 5 2.597899 4.473168 3.535534 3.535534 
C 4.473168 2.597899 5 1.326016 5 0 
C 5 -1.326016 4.473168 -2.597899 3.535534 -3.535534 
C 2.597899 -4.473168 1.326016 -5 0 -5 
C -1.326016 -5 -2.597899 -4.473168 -3.535534 -3.535534 
C -4.473168 -2.597899 -5 -1.326016 -5 0 
C -5 1.326016 -4.473168 2.597899 -3.535534 3.535534 
C -2.597899 4.473168 -1.326016 5 0 5 
z
" style="stroke: #9b59b6; stroke-width: 2"/>
    </defs>
    <g clip-path="url(#pd5383d652d)">
     <use xlink:href="#m5e52fccbf7" x="94.805582" y="585.904965" style="fill: #9b59b6; stroke: #9b59b6; stroke-width: 2"/>
     <use xlink:href="#m5e52fccbf7" x="520.745781" y="527.576781" style="fill: #9b59b6; stroke: #9b59b6; stroke-width: 2"/>
     <use xlink:href="#m5e52fccbf7" x="946.68598" y="491.980475" style="fill: #9b59b6; stroke: #9b59b6; stroke-width: 2"/>
    </g>
   </g>
   <g id="patch_25">
    <path d="M 52.211562 666.879062 
L 52.211562 386.565 
" style="fill: none; stroke: #cccccc; stroke-width: 1.2; stroke-linejoin: miter; stroke-linecap: square"/>
   </g>
   <g id="patch_26">
    <path d="M 989.28 666.879062 
L 989.28 386.565 
" style="fill: none; stroke: #cccccc; stroke-width: 1.2; stroke-linejoin: miter; stroke-linecap: square"/>
   </g>
   <g id="patch_27">
    <path d="M 52.211562 666.879062 
L 989.28 666.879062 
" style="fill: none; stroke: #cccccc; stroke-width: 1.2; stroke-linejoin: miter; stroke-linecap: square"/>
   </g>
   <g id="patch_28">
    <path d="M 52.211562 386.565 
L 989.28 386.565 
" style="fill: none; stroke: #cccccc; stroke-width: 1.2; stroke-linejoin: miter; stroke-linecap: square"/>
   </g>
   <g id="text_24">
    <text style="font-weight: 700; font-size: 16px; font-family: 'Times New Roman', 'DejaVu Serif', serif; text-anchor: middle; fill: #262626" x="520.745781" y="371.565" transform="rotate(-0 520.745781 371.565)">Size Reduction by Prompt Category</text>
   </g>
   <g id="legend_2">
    <g id="patch_29">
     <path d="M 888.800156 442.044531 
L 981.58 442.044531 
Q 983.78 442.044531 983.78 439.844531 
L 983.78 394.265 
Q 983.78 392.065 981.58 392.065 
L 888.800156 392.065 
Q 886.600156 392.065 886.600156 394.265 
L 886.600156 439.844531 
Q 886.600156 442.044531 888.800156 442.044531 
z
" style="fill: #ffffff; opacity: 0.9; stroke: #cccccc; stroke-width: 1.5; stroke-linejoin: miter"/>
    </g>
    <g id="line2d_18">
     <path d="M 891.000156 400.315 
L 902.000156 400.315 
L 913.000156 400.315 
" style="fill: none; stroke: #3498db; stroke-width: 2.5; stroke-linecap: round"/>
     <g>
      <use xlink:href="#m868c139414" x="902.000156" y="400.315" style="fill: #3498db; stroke: #3498db; stroke-width: 2"/>
     </g>
    </g>
    <g id="text_25">
     <text style="font-size: 11px; font-family: 'Times New Roman', 'DejaVu Serif', serif; text-anchor: start; fill: #262626" x="921.800156" y="404.165" transform="rotate(-0 921.800156 404.165)">Zstd</text>
    </g>
    <g id="line2d_19">
     <path d="M 891.000156 415.867969 
L 902.000156 415.867969 
L 913.000156 415.867969 
" style="fill: none; stroke: #2ecc71; stroke-width: 2.5; stroke-linecap: round"/>
     <g>
      <use xlink:href="#m24bae43640" x="902.000156" y="415.867969" style="fill: #2ecc71; stroke: #2ecc71; stroke-width: 2"/>
     </g>
    </g>
    <g id="text_26">
     <text style="font-size: 11px; font-family: 'Times New Roman', 'DejaVu Serif', serif; text-anchor: start; fill: #262626" x="921.800156" y="419.717969" transform="rotate(-0 921.800156 419.717969)">Token (BPE)</text>
    </g>
    <g id="line2d_20">
     <path d="M 891.000156 431.420937 
L 902.000156 431.420937 
L 913.000156 431.420937 
" style="fill: none; stroke: #9b59b6; stroke-width: 2.5; stroke-linecap: round"/>
     <g>
      <use xlink:href="#m5e52fccbf7" x="902.000156" y="431.420937" style="fill: #9b59b6; stroke: #9b59b6; stroke-width: 2"/>
     </g>
    </g>
    <g id="text_27">
     <text style="font-size: 11px; font-family: 'Times New Roman', 'DejaVu Serif', serif; text-anchor: start; fill: #262626" x="921.800156" y="435.270937" transform="rotate(-0 921.800156 435.270937)">Hybrid</text>
    </g>
   </g>
  </g>
 </g>
 <defs>
  <clipPath id="p7b5ebfa59e">
   <rect x="52.211562" y="33.045" width="937.068437" height="280.314063"/>
  </clipPath>
  <clipPath id="pd5383d652d">
   <rect x="52.211562" y="386.565" width="937.068437" height="280.314062"/>
  </clipPath>
 </defs>
</svg>
